# xmcd
#
# Track frame offsets:
#	150
#	14969
#	22548
#	36904
#	56457
#	69728
#	79865
#	90280
#	103014
#	121206
#	135710
#	146294
#	161191
#	176860
#
# Disc length: 2513 seconds
#
# Revision: 1
# Processed by: cddbd v1.5.1PL0 Copyright (c) Steve Scherf et al.
# Submitted via: audiograbber 1.83.01
#
DISCID=b909cf0e
DTITLE=Carl Tosten - A Road Less Traveled
DYEAR=2001
DGENRE=Blue Grass
TTITLE0=What Can i Say
TTITLE1=So What
TTITLE2=No More Yesterday
TTITLE3=Waiting
TTITLE4=A Mother's Love
TTITLE5=Sparrows Dance
TTITLE6=Heaven's Longing
TTITLE7=Joe's Aspen Grove
TTITLE8=Marching On
TTITLE9=Memories
TTITLE10=A Road Les Traveled
TTITLE11=Fading Light
TTITLE12=Letting Go
TTITLE13=The End
EXTD=
EXTT0=
EXTT1=
EXTT2=
EXTT3=
EXTT4=
EXTT5=
EXTT6=
EXTT7=
EXTT8=
EXTT9=
EXTT10=
EXTT11=
EXTT12=
EXTT13=
PLAYORDER=
